HIERARCHY
ROOT Hips
{
    OFFSET 0.000000 0.000000 0.000000
    CHANNELS 6 Xposition Yposition Zposition Zrotation Xrotation Yrotation
    JOINT Spine
    {
        OFFSET -0.000000 14.517291 0.000000
        CHANNELS 3 Zrotation Xrotation Yrotation
        JOINT Spine1
        {
            OFFSET -0.000000 37.558300 0.000000
            CHANNELS 3 Zrotation Xrotation Yrotation
            JOINT Neck
            {
                OFFSET -0.000000 37.404057 3.400369
                CHANNELS 3 Zrotation Xrotation Yrotation
                JOINT Head
                {
                    OFFSET -0.000000 24.785618 -3.540803
                    CHANNELS 3 Zrotation Xrotation Yrotation
                    End Site
                    {
                        OFFSET -0.000000 35.408028 0.000000
                    }
                }
            }
            JOINT LeftShoulder
            {
                OFFSET 6.992933 33.973492 -0.192664
                CHANNELS 3 Zrotation Xrotation Yrotation
                JOINT LeftArm
                {
                    OFFSET 21.527611 0.000000 0.000000
                    CHANNELS 3 Zrotation Xrotation Yrotation
                    JOINT LeftForeArm
                    {
                        OFFSET 56.353916 0.000000 0.000000
                        CHANNELS 3 Zrotation Xrotation Yrotation
                        JOINT LeftHand
                        {
                            OFFSET 47.774071 0.000000 0.000000
                            CHANNELS 3 Zrotation Xrotation Yrotation
                            End Site
                            {
                                OFFSET 26.556021 0.000000 0.000000
                            }
                        }
                    }
                }
            }
            JOINT RightShoulder
            {
                OFFSET -7.065357 33.973492 -0.192664
                CHANNELS 3 Zrotation Xrotation Yrotation
                JOINT RightArm
                {
                    OFFSET -21.527611 0.000000 0.000000
                    CHANNELS 3 Zrotation Xrotation Yrotation
                    JOINT RightForeArm
                    {
                        OFFSET -56.353916 0.000000 0.000000
                        CHANNELS 3 Zrotation Xrotation Yrotation
                        JOINT RightHand
                        {
                            OFFSET -47.774071 0.000000 0.000000
                            CHANNELS 3 Zrotation Xrotation Yrotation
                            End Site
                            {
                                OFFSET -26.556021 0.000000 0.000000
                            }
                        }
                    }
                }
            }
        }
    }
    JOINT LeftUpLeg
    {
        OFFSET 17.704014 0.000000 0.000000
        CHANNELS 3 Zrotation Xrotation Yrotation
        JOINT LeftLeg
        {
            OFFSET -0.000000 -81.181816 0.000000
            CHANNELS 3 Zrotation Xrotation Yrotation
            JOINT LeftFoot
            {
                OFFSET -0.000000 -62.821102 0.000000
                CHANNELS 3 Zrotation Xrotation Yrotation
                JOINT LeftToeBase
                {
                    OFFSET -0.000000 -11.507608 26.556021
                    CHANNELS 3 Zrotation Xrotation Yrotation
                    End Site
                    {
                        OFFSET -0.000000 0.000000 7.081605
                    }
                }
            }
        }
    }
    JOINT RightUpLeg
    {
        OFFSET -17.704014 0.000000 0.000000
        CHANNELS 3 Zrotation Xrotation Yrotation
        JOINT RightLeg
        {
            OFFSET -0.000000 -81.181816 0.000000
            CHANNELS 3 Zrotation Xrotation Yrotation
            JOINT RightFoot
            {
                OFFSET -0.000000 -62.821102 0.000000
                CHANNELS 3 Zrotation Xrotation Yrotation
                JOINT RightToeBase
                {
                    OFFSET -0.000000 -11.507608 26.556021
                    CHANNELS 3 Zrotation Xrotation Yrotation
                    End Site
                    {
                        OFFSET -0.000000 0.000000 7.081605
                    }
                }
            }
        }
    }
}
MOTION
Frames:    5
Frame Time:    0.008333
-29.927673    149.829086    -81.424118    -7.897874    0.639369    36.464535    5.543838    -2.515790    -2.831154    -6.472982    -0.180695    -0.996080    9.356494    -0.616973    -15.477829    7.938509    -0.029451    -16.458336    8.651098    8.954196    -19.016613    -35.355507    20.953014    -50.130585    -7.690968    -6.934826    -116.602707    2.484409    -19.250494    -6.888591    -14.954525    -6.030791    -7.376086    19.795366    -24.024803    54.599766    -12.121743    -13.531590    47.732220    -0.931275    -8.504763    31.656013    1.475689    3.536602    -5.354120    -11.211398    33.228226    -25.083483    25.663269    -23.862066    47.304211    0.000000    0.000000    0.000000    8.707264    -38.247063    2.567774    20.644815    35.349663    -20.846798    -8.458574    -0.954796    -8.983886    0.000000    0.000000    0.000000    
-29.942783    149.837524    -81.416412    -7.873393    0.648785    36.455547    5.574270    -2.481335    -2.844073    -6.552011    -0.267342    -1.005211    9.370487    -0.594691    -15.454087    7.944368    0.044160    -16.438103    8.659965    8.970458    -19.024302    -35.342537    20.917036    -50.083096    -7.708191    -6.923467    -116.612762    2.519834    -19.270224    -6.857964    -14.908909    -5.982419    -7.298910    19.763819    -24.038229    54.547913    -12.071238    -13.530755    47.724514    -0.963613    -8.535915    31.611753    1.468665    3.534760    -5.357776    -11.255004    33.234802    -25.037981    25.643654    -23.847025    47.279606    0.000000    0.000000    0.000000    8.670233    -38.268215    2.551599    20.674259    35.390751    -20.853254    -8.379887    -0.917897    -8.997914    0.000000    0.000000    0.000000    
-29.960138    149.841599    -81.412109    -7.856057    0.665669    36.440517    5.600181    -2.468318    -2.847654    -6.619199    -0.298524    -1.008284    9.380070    -0.668764    -15.277274    7.901042    0.135793    -16.273233    8.676223    8.948535    -18.982328    -35.325260    20.910236    -50.093220    -7.699358    -6.939413    -116.611549    2.507062    -19.270117    -6.830383    -14.889426    -5.986197    -7.260441    19.726435    -24.030951    54.504974    -12.041850    -13.523005    47.698795    -0.959845    -8.542980    31.580734    1.461777    3.524689    -5.331118    -11.276978    33.245510    -25.035393    25.648996    -23.819687    47.256977    0.000000    0.000000    0.000000    8.645215    -38.310883    2.555075    20.706556    35.443535    -20.916580    -8.303242    -0.883483    -8.973423    0.000000    0.000000    0.000000    
-29.971527    149.844131    -81.400436    -7.833138    0.662618    36.431881    5.629843    -2.444182    -2.835133    -6.670374    -0.324533    -1.005607    9.367639    -0.730763    -15.252992    7.881241    0.243247    -16.261160    8.674988    8.932451    -18.982552    -35.308155    20.874765    -50.084949    -7.718459    -6.929400    -116.625816    2.564692    -19.296137    -6.790335    -14.896823    -5.984486    -7.259243    19.695797    -24.012957    54.469883    -12.019108    -13.518371    47.675987    -0.930702    -8.542833    31.555361    1.458702    3.532651    -5.295204    -11.289856    33.269073    -25.025877    25.643654    -23.811798    47.223843    0.000000    0.000000    0.000000    8.619205    -38.325966    2.540892    20.736115    35.492817    -20.929716    -8.224146    -0.862562    -9.001657    0.000000    0.000000    0.000000    
-29.984818    149.841599    -81.390442    -7.816796    0.659580    36.414215    5.672964    -2.435728    -2.802682    -6.739100    -0.328248    -0.995342    9.343942    -0.773781    -15.224657    7.890387    0.313939    -16.235020    8.695936    8.911679    -18.994574    -35.284538    20.867828    -50.092384    -7.664202    -7.039726    -116.620430    2.409670    -19.307522    -6.821782    -14.896767    -5.979986    -7.251786    19.639467    -24.017164    54.410473    -11.992445    -13.499094    47.646072    -0.937581    -8.540529    31.545460    1.453384    3.536919    -5.248554    -11.284534    33.298706    -25.038807    25.654560    -23.801464    47.227993    0.000000    0.000000    0.000000    8.613311    -38.353691    2.539634    20.758005    35.557392    -20.989147    -8.137082    -0.841109    -8.993013    0.000000    0.000000    0.000000    
